<svg width="164" height="150" viewBox="0 0 164 150" fill="none" xmlns="http://www.w3.org/2000/svg">
<rect width="164" height="150" fill="white"/>
<g filter="url(#filter0_ddi_3537_11040)">
<mask id="path-1-inside-1_3537_11040" fill="white">
<path d="M61.288 116.28C53.7787 116.28 47.08 114.616 41.192 111.288C35.3893 107.96 30.8667 103.053 27.624 96.568C24.3813 90.0827 22.76 82.1893 22.76 72.888C22.76 63.7573 24.4667 55.9493 27.88 49.464C31.2933 42.9787 36.1573 37.9867 42.472 34.488C48.872 30.9893 56.3813 29.24 65 29.24C74.5573 29.24 82.28 30.9893 88.168 34.488C94.056 37.9013 98.6213 43.3627 101.864 50.872L81.512 58.936C80.4027 54.584 78.44 51.4267 75.624 49.464C72.808 47.5013 69.3093 46.52 65.128 46.52C60.9467 46.52 57.3627 47.544 54.376 49.592C51.3893 51.5547 49.128 54.4987 47.592 58.424C46.056 62.264 45.288 67.0427 45.288 72.76C45.288 78.7333 46.056 83.7253 47.592 87.736C49.2133 91.7467 51.56 94.7333 54.632 96.696C57.7893 98.5733 61.672 99.512 66.28 99.512C68.7547 99.512 71.016 99.2133 73.064 98.616C75.112 98.0187 76.904 97.1653 78.44 96.056C79.976 94.8613 81.1707 93.4107 82.024 91.704C82.8773 89.912 83.304 87.8213 83.304 85.432V84.152H63.976V69.432H101.992V115H87.016L85.352 95.16L88.936 98.232C87.144 104.035 83.9013 108.515 79.208 111.672C74.6 114.744 68.6267 116.28 61.288 116.28Z"/>
</mask>
<path d="M61.288 116.28C53.7787 116.28 47.08 114.616 41.192 111.288C35.3893 107.96 30.8667 103.053 27.624 96.568C24.3813 90.0827 22.76 82.1893 22.76 72.888C22.76 63.7573 24.4667 55.9493 27.88 49.464C31.2933 42.9787 36.1573 37.9867 42.472 34.488C48.872 30.9893 56.3813 29.24 65 29.24C74.5573 29.24 82.28 30.9893 88.168 34.488C94.056 37.9013 98.6213 43.3627 101.864 50.872L81.512 58.936C80.4027 54.584 78.44 51.4267 75.624 49.464C72.808 47.5013 69.3093 46.52 65.128 46.52C60.9467 46.52 57.3627 47.544 54.376 49.592C51.3893 51.5547 49.128 54.4987 47.592 58.424C46.056 62.264 45.288 67.0427 45.288 72.76C45.288 78.7333 46.056 83.7253 47.592 87.736C49.2133 91.7467 51.56 94.7333 54.632 96.696C57.7893 98.5733 61.672 99.512 66.28 99.512C68.7547 99.512 71.016 99.2133 73.064 98.616C75.112 98.0187 76.904 97.1653 78.44 96.056C79.976 94.8613 81.1707 93.4107 82.024 91.704C82.8773 89.912 83.304 87.8213 83.304 85.432V84.152H63.976V69.432H101.992V115H87.016L85.352 95.16L88.936 98.232C87.144 104.035 83.9013 108.515 79.208 111.672C74.6 114.744 68.6267 116.28 61.288 116.28Z" fill="white"/>
<path d="M41.192 111.288L38.7044 115.625L38.7181 115.633L38.7317 115.641L41.192 111.288ZM27.88 49.464L23.4554 47.1353L23.4554 47.1353L27.88 49.464ZM42.472 34.488L40.0736 30.1008L40.0612 30.1076L40.0488 30.1144L42.472 34.488ZM88.168 34.488L85.6139 38.7864L85.637 38.8002L85.6604 38.8137L88.168 34.488ZM101.864 50.872L103.706 55.5204L108.498 53.6218L106.454 48.8898L101.864 50.872ZM81.512 58.936L76.6669 60.171L78.0706 65.6778L83.3538 63.5844L81.512 58.936ZM75.624 49.464L78.483 45.362L78.483 45.362L75.624 49.464ZM54.376 49.592L57.1219 53.7705L57.163 53.7435L57.2036 53.7156L54.376 49.592ZM47.592 58.424L52.2344 60.2809L52.2414 60.2635L52.2482 60.246L47.592 58.424ZM47.592 87.736L42.9227 89.5242L42.9392 89.5672L42.9565 89.6099L47.592 87.736ZM54.632 96.696L51.9401 100.909L52.0077 100.953L52.0766 100.994L54.632 96.696ZM73.064 98.616L71.664 93.816L73.064 98.616ZM78.44 96.056L81.3675 100.109L81.4395 100.057L81.5097 100.003L78.44 96.056ZM82.024 91.704L86.4961 93.9401L86.5176 93.8971L86.5383 93.8537L82.024 91.704ZM83.304 84.152H88.304V79.152H83.304V84.152ZM63.976 84.152H58.976V89.152H63.976V84.152ZM63.976 69.432V64.432H58.976V69.432H63.976ZM101.992 69.432H106.992V64.432H101.992V69.432ZM101.992 115V120H106.992V115H101.992ZM87.016 115L82.0335 115.418L82.4178 120H87.016V115ZM85.352 95.16L88.606 91.3637L79.3507 83.4306L80.3695 95.5779L85.352 95.16ZM88.936 98.232L93.7134 99.7074L94.6818 96.5716L92.19 94.4357L88.936 98.232ZM79.208 111.672L81.9815 115.832L81.9902 115.826L81.9989 115.821L79.208 111.672ZM61.288 111.28C54.5436 111.28 48.7094 109.794 43.6523 106.935L38.7317 115.641C45.4506 119.438 53.0137 121.28 61.288 121.28V111.28ZM43.6796 106.951C38.8028 104.154 34.9372 100.014 32.0961 94.3319L23.1519 98.8041C26.7961 106.093 31.9758 111.766 38.7044 115.625L43.6796 106.951ZM32.0961 94.3319C29.2846 88.7089 27.76 81.6257 27.76 72.888H17.76C17.76 82.7529 19.4781 91.4564 23.1519 98.8041L32.0961 94.3319ZM27.76 72.888C27.76 64.3729 29.3509 57.4047 32.3046 51.7927L23.4554 47.1353C19.5824 54.494 17.76 63.1418 17.76 72.888H27.76ZM32.3046 51.7927C35.2715 46.1555 39.4463 41.8806 44.8952 38.8616L40.0488 30.1144C32.8684 34.0928 27.3151 39.8018 23.4554 47.1353L32.3046 51.7927ZM44.8704 38.8752C50.4119 35.8459 57.0671 34.24 65 34.24V24.24C55.6956 24.24 47.3321 26.1328 40.0736 30.1008L44.8704 38.8752ZM65 34.24C73.9974 34.24 80.7457 35.8937 85.6139 38.7864L90.7221 30.1896C83.8143 26.0849 75.1173 24.24 65 24.24V34.24ZM85.6604 38.8137C90.4455 41.5877 94.368 46.1252 97.2737 52.8542L106.454 48.8898C102.875 40.6002 97.6665 34.215 90.6757 30.1623L85.6604 38.8137ZM100.022 46.2236L79.6702 54.2876L83.3538 63.5844L103.706 55.5204L100.022 46.2236ZM86.3571 57.701C85.0444 52.5511 82.5541 48.1995 78.483 45.362L72.765 53.566C74.3259 54.6539 75.761 56.6169 76.6669 60.171L86.3571 57.701ZM78.483 45.362C74.6599 42.6974 70.1053 41.52 65.128 41.52V51.52C68.5133 51.52 70.9561 52.3052 72.765 53.566L78.483 45.362ZM65.128 41.52C60.098 41.52 55.4909 42.7649 51.5484 45.4684L57.2036 53.7156C59.2344 52.3231 61.7953 51.52 65.128 51.52V41.52ZM51.6301 45.4135C47.6311 48.0414 44.7796 51.89 42.9358 56.602L52.2482 60.246C53.4764 57.1073 55.1476 55.0679 57.1219 53.7705L51.6301 45.4135ZM42.9496 56.567C41.1057 61.1768 40.288 66.6332 40.288 72.76H50.288C50.288 67.4522 51.0063 63.3512 52.2344 60.2809L42.9496 56.567ZM40.288 72.76C40.288 79.123 41.1008 84.767 42.9227 89.5242L52.2613 85.9478C51.0112 82.6836 50.288 78.3437 50.288 72.76H40.288ZM42.9565 89.6099C44.8925 94.399 47.8391 98.2894 51.9401 100.909L57.3239 92.4825C55.2809 91.1772 53.5342 89.0943 52.2276 85.8621L42.9565 89.6099ZM52.0766 100.994C56.1809 103.434 60.999 104.512 66.28 104.512V94.512C62.345 94.512 59.3977 93.7126 57.1874 92.3983L52.0766 100.994ZM66.28 104.512C69.1546 104.512 71.8953 104.165 74.464 103.416L71.664 93.816C70.1367 94.2615 68.3548 94.512 66.28 94.512V104.512ZM74.464 103.416C76.9917 102.679 79.3143 101.592 81.3675 100.109L75.5126 92.0026C74.4937 92.7384 73.2323 93.3586 71.664 93.816L74.464 103.416ZM81.5097 100.003C83.623 98.3591 85.3021 96.3281 86.4961 93.9401L77.5519 89.4679C77.0392 90.4933 76.329 91.3636 75.3703 92.1092L81.5097 100.003ZM86.5383 93.8537C87.77 91.2672 88.304 88.4157 88.304 85.432H78.304C78.304 87.227 77.9847 88.5568 77.5097 89.5543L86.5383 93.8537ZM88.304 85.432V84.152H78.304V85.432H88.304ZM83.304 79.152H63.976V89.152H83.304V79.152ZM68.976 84.152V69.432H58.976V84.152H68.976ZM63.976 74.432H101.992V64.432H63.976V74.432ZM96.992 69.432V115H106.992V69.432H96.992ZM101.992 110H87.016V120H101.992V110ZM91.9985 114.582L90.3345 94.7421L80.3695 95.5779L82.0335 115.418L91.9985 114.582ZM82.098 98.9563L85.682 102.028L92.19 94.4357L88.606 91.3637L82.098 98.9563ZM84.1586 96.7566C82.6772 101.554 80.09 105.053 76.4171 107.523L81.9989 115.821C87.7127 111.977 91.6108 106.516 93.7134 99.7074L84.1586 96.7566ZM76.4345 107.512C72.8759 109.884 67.9548 111.28 61.288 111.28V121.28C69.2986 121.28 76.3241 119.604 81.9815 115.832L76.4345 107.512Z" fill="black" mask="url(#path-1-inside-1_3537_11040)"/>
<path d="M41.192 111.288L38.7044 115.625L38.7181 115.633L38.7317 115.641L41.192 111.288ZM27.88 49.464L23.4554 47.1353L23.4554 47.1353L27.88 49.464ZM42.472 34.488L40.0736 30.1008L40.0612 30.1076L40.0488 30.1144L42.472 34.488ZM88.168 34.488L85.6139 38.7864L85.637 38.8002L85.6604 38.8137L88.168 34.488ZM101.864 50.872L103.706 55.5204L108.498 53.6218L106.454 48.8898L101.864 50.872ZM81.512 58.936L76.6669 60.171L78.0706 65.6778L83.3538 63.5844L81.512 58.936ZM75.624 49.464L78.483 45.362L78.483 45.362L75.624 49.464ZM54.376 49.592L57.1219 53.7705L57.163 53.7435L57.2036 53.7156L54.376 49.592ZM47.592 58.424L52.2344 60.2809L52.2414 60.2635L52.2482 60.246L47.592 58.424ZM47.592 87.736L42.9227 89.5242L42.9392 89.5672L42.9565 89.6099L47.592 87.736ZM54.632 96.696L51.9401 100.909L52.0077 100.953L52.0766 100.994L54.632 96.696ZM73.064 98.616L71.664 93.816L73.064 98.616ZM78.44 96.056L81.3675 100.109L81.4395 100.057L81.5097 100.003L78.44 96.056ZM82.024 91.704L86.4961 93.9401L86.5176 93.8971L86.5383 93.8537L82.024 91.704ZM83.304 84.152H88.304V79.152H83.304V84.152ZM63.976 84.152H58.976V89.152H63.976V84.152ZM63.976 69.432V64.432H58.976V69.432H63.976ZM101.992 69.432H106.992V64.432H101.992V69.432ZM101.992 115V120H106.992V115H101.992ZM87.016 115L82.0335 115.418L82.4178 120H87.016V115ZM85.352 95.16L88.606 91.3637L79.3507 83.4306L80.3695 95.5779L85.352 95.16ZM88.936 98.232L93.7134 99.7074L94.6818 96.5716L92.19 94.4357L88.936 98.232ZM79.208 111.672L81.9815 115.832L81.9902 115.826L81.9989 115.821L79.208 111.672ZM61.288 111.28C54.5436 111.28 48.7094 109.794 43.6523 106.935L38.7317 115.641C45.4506 119.438 53.0137 121.28 61.288 121.28V111.28ZM43.6796 106.951C38.8028 104.154 34.9372 100.014 32.0961 94.3319L23.1519 98.8041C26.7961 106.093 31.9758 111.766 38.7044 115.625L43.6796 106.951ZM32.0961 94.3319C29.2846 88.7089 27.76 81.6257 27.76 72.888H17.76C17.76 82.7529 19.4781 91.4564 23.1519 98.8041L32.0961 94.3319ZM27.76 72.888C27.76 64.3729 29.3509 57.4047 32.3046 51.7927L23.4554 47.1353C19.5824 54.494 17.76 63.1418 17.76 72.888H27.76ZM32.3046 51.7927C35.2715 46.1555 39.4463 41.8806 44.8952 38.8616L40.0488 30.1144C32.8684 34.0928 27.3151 39.8018 23.4554 47.1353L32.3046 51.7927ZM44.8704 38.8752C50.4119 35.8459 57.0671 34.24 65 34.24V24.24C55.6956 24.24 47.3321 26.1328 40.0736 30.1008L44.8704 38.8752ZM65 34.24C73.9974 34.24 80.7457 35.8937 85.6139 38.7864L90.7221 30.1896C83.8143 26.0849 75.1173 24.24 65 24.24V34.24ZM85.6604 38.8137C90.4455 41.5877 94.368 46.1252 97.2737 52.8542L106.454 48.8898C102.875 40.6002 97.6665 34.215 90.6757 30.1623L85.6604 38.8137ZM100.022 46.2236L79.6702 54.2876L83.3538 63.5844L103.706 55.5204L100.022 46.2236ZM86.3571 57.701C85.0444 52.5511 82.5541 48.1995 78.483 45.362L72.765 53.566C74.3259 54.6539 75.761 56.6169 76.6669 60.171L86.3571 57.701ZM78.483 45.362C74.6599 42.6974 70.1053 41.52 65.128 41.52V51.52C68.5133 51.52 70.9561 52.3052 72.765 53.566L78.483 45.362ZM65.128 41.52C60.098 41.52 55.4909 42.7649 51.5484 45.4684L57.2036 53.7156C59.2344 52.3231 61.7953 51.52 65.128 51.52V41.52ZM51.6301 45.4135C47.6311 48.0414 44.7796 51.89 42.9358 56.602L52.2482 60.246C53.4764 57.1073 55.1476 55.0679 57.1219 53.7705L51.6301 45.4135ZM42.9496 56.567C41.1057 61.1768 40.288 66.6332 40.288 72.76H50.288C50.288 67.4522 51.0063 63.3512 52.2344 60.2809L42.9496 56.567ZM40.288 72.76C40.288 79.123 41.1008 84.767 42.9227 89.5242L52.2613 85.9478C51.0112 82.6836 50.288 78.3437 50.288 72.76H40.288ZM42.9565 89.6099C44.8925 94.399 47.8391 98.2894 51.9401 100.909L57.3239 92.4825C55.2809 91.1772 53.5342 89.0943 52.2276 85.8621L42.9565 89.6099ZM52.0766 100.994C56.1809 103.434 60.999 104.512 66.28 104.512V94.512C62.345 94.512 59.3977 93.7126 57.1874 92.3983L52.0766 100.994ZM66.28 104.512C69.1546 104.512 71.8953 104.165 74.464 103.416L71.664 93.816C70.1367 94.2615 68.3548 94.512 66.28 94.512V104.512ZM74.464 103.416C76.9917 102.679 79.3143 101.592 81.3675 100.109L75.5126 92.0026C74.4937 92.7384 73.2323 93.3586 71.664 93.816L74.464 103.416ZM81.5097 100.003C83.623 98.3591 85.3021 96.3281 86.4961 93.9401L77.5519 89.4679C77.0392 90.4933 76.329 91.3636 75.3703 92.1092L81.5097 100.003ZM86.5383 93.8537C87.77 91.2672 88.304 88.4157 88.304 85.432H78.304C78.304 87.227 77.9847 88.5568 77.5097 89.5543L86.5383 93.8537ZM88.304 85.432V84.152H78.304V85.432H88.304ZM83.304 79.152H63.976V89.152H83.304V79.152ZM68.976 84.152V69.432H58.976V84.152H68.976ZM63.976 74.432H101.992V64.432H63.976V74.432ZM96.992 69.432V115H106.992V69.432H96.992ZM101.992 110H87.016V120H101.992V110ZM91.9985 114.582L90.3345 94.7421L80.3695 95.5779L82.0335 115.418L91.9985 114.582ZM82.098 98.9563L85.682 102.028L92.19 94.4357L88.606 91.3637L82.098 98.9563ZM84.1586 96.7566C82.6772 101.554 80.09 105.053 76.4171 107.523L81.9989 115.821C87.7127 111.977 91.6108 106.516 93.7134 99.7074L84.1586 96.7566ZM76.4345 107.512C72.8759 109.884 67.9548 111.28 61.288 111.28V121.28C69.2986 121.28 76.3241 119.604 81.9815 115.832L76.4345 107.512Z" fill="white" fill-opacity="0.4" mask="url(#path-1-inside-1_3537_11040)"/>
<path d="M41.192 111.288L38.7044 115.625L38.7181 115.633L38.7317 115.641L41.192 111.288ZM27.88 49.464L23.4554 47.1353L23.4554 47.1353L27.88 49.464ZM42.472 34.488L40.0736 30.1008L40.0612 30.1076L40.0488 30.1144L42.472 34.488ZM88.168 34.488L85.6139 38.7864L85.637 38.8002L85.6604 38.8137L88.168 34.488ZM101.864 50.872L103.706 55.5204L108.498 53.6218L106.454 48.8898L101.864 50.872ZM81.512 58.936L76.6669 60.171L78.0706 65.6778L83.3538 63.5844L81.512 58.936ZM75.624 49.464L78.483 45.362L78.483 45.362L75.624 49.464ZM54.376 49.592L57.1219 53.7705L57.163 53.7435L57.2036 53.7156L54.376 49.592ZM47.592 58.424L52.2344 60.2809L52.2414 60.2635L52.2482 60.246L47.592 58.424ZM47.592 87.736L42.9227 89.5242L42.9392 89.5672L42.9565 89.6099L47.592 87.736ZM54.632 96.696L51.9401 100.909L52.0077 100.953L52.0766 100.994L54.632 96.696ZM73.064 98.616L71.664 93.816L73.064 98.616ZM78.44 96.056L81.3675 100.109L81.4395 100.057L81.5097 100.003L78.44 96.056ZM82.024 91.704L86.4961 93.9401L86.5176 93.8971L86.5383 93.8537L82.024 91.704ZM83.304 84.152H88.304V79.152H83.304V84.152ZM63.976 84.152H58.976V89.152H63.976V84.152ZM63.976 69.432V64.432H58.976V69.432H63.976ZM101.992 69.432H106.992V64.432H101.992V69.432ZM101.992 115V120H106.992V115H101.992ZM87.016 115L82.0335 115.418L82.4178 120H87.016V115ZM85.352 95.16L88.606 91.3637L79.3507 83.4306L80.3695 95.5779L85.352 95.16ZM88.936 98.232L93.7134 99.7074L94.6818 96.5716L92.19 94.4357L88.936 98.232ZM79.208 111.672L81.9815 115.832L81.9902 115.826L81.9989 115.821L79.208 111.672ZM61.288 111.28C54.5436 111.28 48.7094 109.794 43.6523 106.935L38.7317 115.641C45.4506 119.438 53.0137 121.28 61.288 121.28V111.28ZM43.6796 106.951C38.8028 104.154 34.9372 100.014 32.0961 94.3319L23.1519 98.8041C26.7961 106.093 31.9758 111.766 38.7044 115.625L43.6796 106.951ZM32.0961 94.3319C29.2846 88.7089 27.76 81.6257 27.76 72.888H17.76C17.76 82.7529 19.4781 91.4564 23.1519 98.8041L32.0961 94.3319ZM27.76 72.888C27.76 64.3729 29.3509 57.4047 32.3046 51.7927L23.4554 47.1353C19.5824 54.494 17.76 63.1418 17.76 72.888H27.76ZM32.3046 51.7927C35.2715 46.1555 39.4463 41.8806 44.8952 38.8616L40.0488 30.1144C32.8684 34.0928 27.3151 39.8018 23.4554 47.1353L32.3046 51.7927ZM44.8704 38.8752C50.4119 35.8459 57.0671 34.24 65 34.24V24.24C55.6956 24.24 47.3321 26.1328 40.0736 30.1008L44.8704 38.8752ZM65 34.24C73.9974 34.24 80.7457 35.8937 85.6139 38.7864L90.7221 30.1896C83.8143 26.0849 75.1173 24.24 65 24.24V34.24ZM85.6604 38.8137C90.4455 41.5877 94.368 46.1252 97.2737 52.8542L106.454 48.8898C102.875 40.6002 97.6665 34.215 90.6757 30.1623L85.6604 38.8137ZM100.022 46.2236L79.6702 54.2876L83.3538 63.5844L103.706 55.5204L100.022 46.2236ZM86.3571 57.701C85.0444 52.5511 82.5541 48.1995 78.483 45.362L72.765 53.566C74.3259 54.6539 75.761 56.6169 76.6669 60.171L86.3571 57.701ZM78.483 45.362C74.6599 42.6974 70.1053 41.52 65.128 41.52V51.52C68.5133 51.52 70.9561 52.3052 72.765 53.566L78.483 45.362ZM65.128 41.52C60.098 41.52 55.4909 42.7649 51.5484 45.4684L57.2036 53.7156C59.2344 52.3231 61.7953 51.52 65.128 51.52V41.52ZM51.6301 45.4135C47.6311 48.0414 44.7796 51.89 42.9358 56.602L52.2482 60.246C53.4764 57.1073 55.1476 55.0679 57.1219 53.7705L51.6301 45.4135ZM42.9496 56.567C41.1057 61.1768 40.288 66.6332 40.288 72.76H50.288C50.288 67.4522 51.0063 63.3512 52.2344 60.2809L42.9496 56.567ZM40.288 72.76C40.288 79.123 41.1008 84.767 42.9227 89.5242L52.2613 85.9478C51.0112 82.6836 50.288 78.3437 50.288 72.76H40.288ZM42.9565 89.6099C44.8925 94.399 47.8391 98.2894 51.9401 100.909L57.3239 92.4825C55.2809 91.1772 53.5342 89.0943 52.2276 85.8621L42.9565 89.6099ZM52.0766 100.994C56.1809 103.434 60.999 104.512 66.28 104.512V94.512C62.345 94.512 59.3977 93.7126 57.1874 92.3983L52.0766 100.994ZM66.28 104.512C69.1546 104.512 71.8953 104.165 74.464 103.416L71.664 93.816C70.1367 94.2615 68.3548 94.512 66.28 94.512V104.512ZM74.464 103.416C76.9917 102.679 79.3143 101.592 81.3675 100.109L75.5126 92.0026C74.4937 92.7384 73.2323 93.3586 71.664 93.816L74.464 103.416ZM81.5097 100.003C83.623 98.3591 85.3021 96.3281 86.4961 93.9401L77.5519 89.4679C77.0392 90.4933 76.329 91.3636 75.3703 92.1092L81.5097 100.003ZM86.5383 93.8537C87.77 91.2672 88.304 88.4157 88.304 85.432H78.304C78.304 87.227 77.9847 88.5568 77.5097 89.5543L86.5383 93.8537ZM88.304 85.432V84.152H78.304V85.432H88.304ZM83.304 79.152H63.976V89.152H83.304V79.152ZM68.976 84.152V69.432H58.976V84.152H68.976ZM63.976 74.432H101.992V64.432H63.976V74.432ZM96.992 69.432V115H106.992V69.432H96.992ZM101.992 110H87.016V120H101.992V110ZM91.9985 114.582L90.3345 94.7421L80.3695 95.5779L82.0335 115.418L91.9985 114.582ZM82.098 98.9563L85.682 102.028L92.19 94.4357L88.606 91.3637L82.098 98.9563ZM84.1586 96.7566C82.6772 101.554 80.09 105.053 76.4171 107.523L81.9989 115.821C87.7127 111.977 91.6108 106.516 93.7134 99.7074L84.1586 96.7566ZM76.4345 107.512C72.8759 109.884 67.9548 111.28 61.288 111.28V121.28C69.2986 121.28 76.3241 119.604 81.9815 115.832L76.4345 107.512Z" fill="black" fill-opacity="0.2" mask="url(#path-1-inside-1_3537_11040)"/>
<path d="M41.192 111.288L38.7044 115.625L38.7181 115.633L38.7317 115.641L41.192 111.288ZM27.88 49.464L23.4554 47.1353L23.4554 47.1353L27.88 49.464ZM42.472 34.488L40.0736 30.1008L40.0612 30.1076L40.0488 30.1144L42.472 34.488ZM88.168 34.488L85.6139 38.7864L85.637 38.8002L85.6604 38.8137L88.168 34.488ZM101.864 50.872L103.706 55.5204L108.498 53.6218L106.454 48.8898L101.864 50.872ZM81.512 58.936L76.6669 60.171L78.0706 65.6778L83.3538 63.5844L81.512 58.936ZM75.624 49.464L78.483 45.362L78.483 45.362L75.624 49.464ZM54.376 49.592L57.1219 53.7705L57.163 53.7435L57.2036 53.7156L54.376 49.592ZM47.592 58.424L52.2344 60.2809L52.2414 60.2635L52.2482 60.246L47.592 58.424ZM47.592 87.736L42.9227 89.5242L42.9392 89.5672L42.9565 89.6099L47.592 87.736ZM54.632 96.696L51.9401 100.909L52.0077 100.953L52.0766 100.994L54.632 96.696ZM73.064 98.616L71.664 93.816L73.064 98.616ZM78.44 96.056L81.3675 100.109L81.4395 100.057L81.5097 100.003L78.44 96.056ZM82.024 91.704L86.4961 93.9401L86.5176 93.8971L86.5383 93.8537L82.024 91.704ZM83.304 84.152H88.304V79.152H83.304V84.152ZM63.976 84.152H58.976V89.152H63.976V84.152ZM63.976 69.432V64.432H58.976V69.432H63.976ZM101.992 69.432H106.992V64.432H101.992V69.432ZM101.992 115V120H106.992V115H101.992ZM87.016 115L82.0335 115.418L82.4178 120H87.016V115ZM85.352 95.16L88.606 91.3637L79.3507 83.4306L80.3695 95.5779L85.352 95.16ZM88.936 98.232L93.7134 99.7074L94.6818 96.5716L92.19 94.4357L88.936 98.232ZM79.208 111.672L81.9815 115.832L81.9902 115.826L81.9989 115.821L79.208 111.672ZM61.288 111.28C54.5436 111.28 48.7094 109.794 43.6523 106.935L38.7317 115.641C45.4506 119.438 53.0137 121.28 61.288 121.28V111.28ZM43.6796 106.951C38.8028 104.154 34.9372 100.014 32.0961 94.3319L23.1519 98.8041C26.7961 106.093 31.9758 111.766 38.7044 115.625L43.6796 106.951ZM32.0961 94.3319C29.2846 88.7089 27.76 81.6257 27.76 72.888H17.76C17.76 82.7529 19.4781 91.4564 23.1519 98.8041L32.0961 94.3319ZM27.76 72.888C27.76 64.3729 29.3509 57.4047 32.3046 51.7927L23.4554 47.1353C19.5824 54.494 17.76 63.1418 17.76 72.888H27.76ZM32.3046 51.7927C35.2715 46.1555 39.4463 41.8806 44.8952 38.8616L40.0488 30.1144C32.8684 34.0928 27.3151 39.8018 23.4554 47.1353L32.3046 51.7927ZM44.8704 38.8752C50.4119 35.8459 57.0671 34.24 65 34.24V24.24C55.6956 24.24 47.3321 26.1328 40.0736 30.1008L44.8704 38.8752ZM65 34.24C73.9974 34.24 80.7457 35.8937 85.6139 38.7864L90.7221 30.1896C83.8143 26.0849 75.1173 24.24 65 24.24V34.24ZM85.6604 38.8137C90.4455 41.5877 94.368 46.1252 97.2737 52.8542L106.454 48.8898C102.875 40.6002 97.6665 34.215 90.6757 30.1623L85.6604 38.8137ZM100.022 46.2236L79.6702 54.2876L83.3538 63.5844L103.706 55.5204L100.022 46.2236ZM86.3571 57.701C85.0444 52.5511 82.5541 48.1995 78.483 45.362L72.765 53.566C74.3259 54.6539 75.761 56.6169 76.6669 60.171L86.3571 57.701ZM78.483 45.362C74.6599 42.6974 70.1053 41.52 65.128 41.52V51.52C68.5133 51.52 70.9561 52.3052 72.765 53.566L78.483 45.362ZM65.128 41.52C60.098 41.52 55.4909 42.7649 51.5484 45.4684L57.2036 53.7156C59.2344 52.3231 61.7953 51.52 65.128 51.52V41.52ZM51.6301 45.4135C47.6311 48.0414 44.7796 51.89 42.9358 56.602L52.2482 60.246C53.4764 57.1073 55.1476 55.0679 57.1219 53.7705L51.6301 45.4135ZM42.9496 56.567C41.1057 61.1768 40.288 66.6332 40.288 72.76H50.288C50.288 67.4522 51.0063 63.3512 52.2344 60.2809L42.9496 56.567ZM40.288 72.76C40.288 79.123 41.1008 84.767 42.9227 89.5242L52.2613 85.9478C51.0112 82.6836 50.288 78.3437 50.288 72.76H40.288ZM42.9565 89.6099C44.8925 94.399 47.8391 98.2894 51.9401 100.909L57.3239 92.4825C55.2809 91.1772 53.5342 89.0943 52.2276 85.8621L42.9565 89.6099ZM52.0766 100.994C56.1809 103.434 60.999 104.512 66.28 104.512V94.512C62.345 94.512 59.3977 93.7126 57.1874 92.3983L52.0766 100.994ZM66.28 104.512C69.1546 104.512 71.8953 104.165 74.464 103.416L71.664 93.816C70.1367 94.2615 68.3548 94.512 66.28 94.512V104.512ZM74.464 103.416C76.9917 102.679 79.3143 101.592 81.3675 100.109L75.5126 92.0026C74.4937 92.7384 73.2323 93.3586 71.664 93.816L74.464 103.416ZM81.5097 100.003C83.623 98.3591 85.3021 96.3281 86.4961 93.9401L77.5519 89.4679C77.0392 90.4933 76.329 91.3636 75.3703 92.1092L81.5097 100.003ZM86.5383 93.8537C87.77 91.2672 88.304 88.4157 88.304 85.432H78.304C78.304 87.227 77.9847 88.5568 77.5097 89.5543L86.5383 93.8537ZM88.304 85.432V84.152H78.304V85.432H88.304ZM83.304 79.152H63.976V89.152H83.304V79.152ZM68.976 84.152V69.432H58.976V84.152H68.976ZM63.976 74.432H101.992V64.432H63.976V74.432ZM96.992 69.432V115H106.992V69.432H96.992ZM101.992 110H87.016V120H101.992V110ZM91.9985 114.582L90.3345 94.7421L80.3695 95.5779L82.0335 115.418L91.9985 114.582ZM82.098 98.9563L85.682 102.028L92.19 94.4357L88.606 91.3637L82.098 98.9563ZM84.1586 96.7566C82.6772 101.554 80.09 105.053 76.4171 107.523L81.9989 115.821C87.7127 111.977 91.6108 106.516 93.7134 99.7074L84.1586 96.7566ZM76.4345 107.512C72.8759 109.884 67.9548 111.28 61.288 111.28V121.28C69.2986 121.28 76.3241 119.604 81.9815 115.832L76.4345 107.512Z" fill="black" fill-opacity="0.1" mask="url(#path-1-inside-1_3537_11040)"/>
<mask id="path-3-inside-2_3537_11040" fill="white">
<path d="M103.095 115V105.1H110.805V107.095H105.675V109.105H109.755V110.98H105.675V113.005H111V115H103.095ZM121.483 105.1V115H118.618L115.543 109.645L114.793 108.175H114.778L114.838 110.005V115H112.558V105.1H115.423L118.498 110.455L119.248 111.925H119.263L119.203 110.095V105.1H121.483ZM132.331 105.1V110.965C132.331 112.365 131.956 113.415 131.206 114.115C130.466 114.805 129.366 115.15 127.906 115.15C126.456 115.15 125.356 114.805 124.606 114.115C123.856 113.415 123.481 112.365 123.481 110.965V105.1H126.076V111.01C126.076 111.72 126.226 112.25 126.526 112.6C126.836 112.95 127.296 113.125 127.906 113.125C128.526 113.125 128.986 112.95 129.286 112.6C129.596 112.25 129.751 111.72 129.751 111.01V105.1H132.331ZM143.25 105.1V115H140.385L137.31 109.645L136.56 108.175H136.545L136.605 110.005V115H134.325V105.1H137.19L140.265 110.455L141.015 111.925H141.03L140.97 110.095V105.1H143.25Z"/>
</mask>
<path d="M103.095 115V105.1H110.805V107.095H105.675V109.105H109.755V110.98H105.675V113.005H111V115H103.095ZM121.483 105.1V115H118.618L115.543 109.645L114.793 108.175H114.778L114.838 110.005V115H112.558V105.1H115.423L118.498 110.455L119.248 111.925H119.263L119.203 110.095V105.1H121.483ZM132.331 105.1V110.965C132.331 112.365 131.956 113.415 131.206 114.115C130.466 114.805 129.366 115.15 127.906 115.15C126.456 115.15 125.356 114.805 124.606 114.115C123.856 113.415 123.481 112.365 123.481 110.965V105.1H126.076V111.01C126.076 111.72 126.226 112.25 126.526 112.6C126.836 112.95 127.296 113.125 127.906 113.125C128.526 113.125 128.986 112.95 129.286 112.6C129.596 112.25 129.751 111.72 129.751 111.01V105.1H132.331ZM143.25 105.1V115H140.385L137.31 109.645L136.56 108.175H136.545L136.605 110.005V115H134.325V105.1H137.19L140.265 110.455L141.015 111.925H141.03L140.97 110.095V105.1H143.25Z" fill="white"/>
<path d="M103.095 115H98.095V120H103.095V115ZM103.095 105.1V100.1H98.095V105.1H103.095ZM110.805 105.1H115.805V100.1H110.805V105.1ZM110.805 107.095V112.095H115.805V107.095H110.805ZM105.675 107.095V102.095H100.675V107.095H105.675ZM105.675 109.105H100.675V114.105H105.675V109.105ZM109.755 109.105H114.755V104.105H109.755V109.105ZM109.755 110.98V115.98H114.755V110.98H109.755ZM105.675 110.98V105.98H100.675V110.98H105.675ZM105.675 113.005H100.675V118.005H105.675V113.005ZM111 113.005H116V108.005H111V113.005ZM111 115V120H116V115H111ZM108.095 115V105.1H98.095V115H108.095ZM103.095 110.1H110.805V100.1H103.095V110.1ZM105.805 105.1V107.095H115.805V105.1H105.805ZM110.805 102.095H105.675V112.095H110.805V102.095ZM100.675 107.095V109.105H110.675V107.095H100.675ZM105.675 114.105H109.755V104.105H105.675V114.105ZM104.755 109.105V110.98H114.755V109.105H104.755ZM109.755 105.98H105.675V115.98H109.755V105.98ZM100.675 110.98V113.005H110.675V110.98H100.675ZM105.675 118.005H111V108.005H105.675V118.005ZM106 113.005V115H116V113.005H106ZM111 110H103.095V120H111V110ZM121.483 105.1H126.483V100.1H121.483V105.1ZM121.483 115V120H126.483V115H121.483ZM118.618 115L114.282 117.49L115.723 120H118.618V115ZM115.543 109.645L111.089 111.917L111.145 112.028L111.207 112.135L115.543 109.645ZM114.793 108.175L119.247 105.903L117.855 103.175H114.793V108.175ZM114.778 108.175V103.175H109.611L109.781 108.339L114.778 108.175ZM114.838 110.005H119.838V109.923L119.835 109.841L114.838 110.005ZM114.838 115V120H119.838V115H114.838ZM112.558 115H107.558V120H112.558V115ZM112.558 105.1V100.1H107.558V105.1H112.558ZM115.423 105.1L119.759 102.61L118.317 100.1H115.423V105.1ZM118.498 110.455L122.952 108.183L122.895 108.072L122.834 107.965L118.498 110.455ZM119.248 111.925L114.794 114.197L116.186 116.925H119.248V111.925ZM119.263 111.925V116.925H124.43L124.26 111.761L119.263 111.925ZM119.203 110.095H114.203V110.177L114.206 110.259L119.203 110.095ZM119.203 105.1V100.1H114.203V105.1H119.203ZM116.483 105.1V115H126.483V105.1H116.483ZM121.483 110H118.618V120H121.483V110ZM122.954 112.51L119.879 107.155L111.207 112.135L114.282 117.49L122.954 112.51ZM119.997 107.373L119.247 105.903L110.339 110.447L111.089 111.917L119.997 107.373ZM114.793 103.175H114.778V113.175H114.793V103.175ZM109.781 108.339L109.841 110.169L119.835 109.841L119.775 108.011L109.781 108.339ZM109.838 110.005V115H119.838V110.005H109.838ZM114.838 110H112.558V120H114.838V110ZM117.558 115V105.1H107.558V115H117.558ZM112.558 110.1H115.423V100.1H112.558V110.1ZM111.087 107.59L114.162 112.945L122.834 107.965L119.759 102.61L111.087 107.59ZM114.044 112.727L114.794 114.197L123.702 109.653L122.952 108.183L114.044 112.727ZM119.248 116.925H119.263V106.925H119.248V116.925ZM124.26 111.761L124.2 109.931L114.206 110.259L114.266 112.089L124.26 111.761ZM124.203 110.095V105.1H114.203V110.095H124.203ZM119.203 110.1H121.483V100.1H119.203V110.1ZM132.331 105.1H137.331V100.1H132.331V105.1ZM131.206 114.115L134.616 117.772L134.618 117.77L131.206 114.115ZM124.606 114.115L121.194 117.77L121.208 117.783L121.221 117.795L124.606 114.115ZM123.481 105.1V100.1H118.481V105.1H123.481ZM126.076 105.1H131.076V100.1H126.076V105.1ZM126.526 112.6L122.73 115.854L122.756 115.885L122.783 115.915L126.526 112.6ZM129.286 112.6L125.543 109.285L125.516 109.315L125.49 109.346L129.286 112.6ZM129.751 105.1V100.1H124.751V105.1H129.751ZM127.331 105.1V110.965H137.331V105.1H127.331ZM127.331 110.965C127.331 111.232 127.294 111.254 127.341 111.121C127.366 111.05 127.413 110.944 127.492 110.821C127.573 110.695 127.675 110.572 127.794 110.46L134.618 117.77C136.709 115.819 137.331 113.227 137.331 110.965H127.331ZM127.796 110.458C127.914 110.348 128.031 110.267 128.132 110.21C128.232 110.154 128.303 110.129 128.33 110.12C128.373 110.107 128.257 110.15 127.906 110.15V120.15C130.075 120.15 132.611 119.642 134.616 117.772L127.796 110.458ZM127.906 110.15C127.564 110.15 127.45 110.108 127.49 110.12C127.515 110.128 127.582 110.152 127.675 110.204C127.771 110.258 127.881 110.333 127.991 110.435L121.221 117.795C123.22 119.634 125.73 120.15 127.906 120.15V110.15ZM128.018 110.46C128.138 110.572 128.239 110.695 128.32 110.821C128.399 110.944 128.446 111.05 128.471 111.121C128.518 111.254 128.481 111.232 128.481 110.965H118.481C118.481 113.227 119.103 115.819 121.194 117.77L128.018 110.46ZM128.481 110.965V105.1H118.481V110.965H128.481ZM123.481 110.1H126.076V100.1H123.481V110.1ZM121.076 105.1V111.01H131.076V105.1H121.076ZM121.076 111.01C121.076 112.297 121.329 114.219 122.73 115.854L130.322 109.346C130.726 109.818 130.915 110.28 131 110.578C131.08 110.863 131.076 111.03 131.076 111.01H121.076ZM122.783 115.915C124.311 117.64 126.328 118.125 127.906 118.125V108.125C128.068 108.125 128.426 108.147 128.881 108.321C129.366 108.505 129.86 108.823 130.269 109.285L122.783 115.915ZM127.906 118.125C129.454 118.125 131.534 117.661 133.082 115.854L125.49 109.346C125.92 108.844 126.442 108.509 126.938 108.321C127.402 108.144 127.76 108.125 127.906 108.125V118.125ZM133.029 115.915C134.479 114.278 134.751 112.33 134.751 111.01H124.751C124.751 111.008 124.751 110.965 124.761 110.889C124.77 110.812 124.791 110.691 124.836 110.537C124.928 110.221 125.129 109.753 125.543 109.285L133.029 115.915ZM134.751 111.01V105.1H124.751V111.01H134.751ZM129.751 110.1H132.331V100.1H129.751V110.1ZM143.25 105.1H148.25V100.1H143.25V105.1ZM143.25 115V120H148.25V115H143.25ZM140.385 115L136.049 117.49L137.491 120H140.385V115ZM137.31 109.645L132.857 111.917L132.913 112.028L132.974 112.135L137.31 109.645ZM136.56 108.175L141.014 105.903L139.623 103.175H136.56V108.175ZM136.545 108.175V103.175H131.379L131.548 108.339L136.545 108.175ZM136.605 110.005H141.605V109.923L141.603 109.841L136.605 110.005ZM136.605 115V120H141.605V115H136.605ZM134.325 115H129.325V120H134.325V115ZM134.325 105.1V100.1H129.325V105.1H134.325ZM137.19 105.1L141.526 102.61L140.085 100.1H137.19V105.1ZM140.265 110.455L144.719 108.183L144.663 108.072L144.601 107.965L140.265 110.455ZM141.015 111.925L136.562 114.197L137.953 116.925H141.015V111.925ZM141.03 111.925V116.925H146.197L146.028 111.761L141.03 111.925ZM140.97 110.095H135.97V110.177L135.973 110.259L140.97 110.095ZM140.97 105.1V100.1H135.97V105.1H140.97ZM138.25 105.1V115H148.25V105.1H138.25ZM143.25 110H140.385V120H143.25V110ZM144.721 112.51L141.646 107.155L132.974 112.135L136.049 117.49L144.721 112.51ZM141.764 107.373L141.014 105.903L132.107 110.447L132.857 111.917L141.764 107.373ZM136.56 103.175H136.545V113.175H136.56V103.175ZM131.548 108.339L131.608 110.169L141.603 109.841L141.543 108.011L131.548 108.339ZM131.605 110.005V115H141.605V110.005H131.605ZM136.605 110H134.325V120H136.605V110ZM139.325 115V105.1H129.325V115H139.325ZM134.325 110.1H137.19V100.1H134.325V110.1ZM132.854 107.59L135.929 112.945L144.601 107.965L141.526 102.61L132.854 107.59ZM135.812 112.727L136.562 114.197L145.469 109.653L144.719 108.183L135.812 112.727ZM141.015 116.925H141.03V106.925H141.015V116.925ZM146.028 111.761L145.968 109.931L135.973 110.259L136.033 112.089L146.028 111.761ZM145.97 110.095V105.1H135.97V110.095H145.97ZM140.97 110.1H143.25V100.1H140.97V110.1Z" fill="black" mask="url(#path-3-inside-2_3537_11040)"/>
<path d="M103.095 115H98.095V120H103.095V115ZM103.095 105.1V100.1H98.095V105.1H103.095ZM110.805 105.1H115.805V100.1H110.805V105.1ZM110.805 107.095V112.095H115.805V107.095H110.805ZM105.675 107.095V102.095H100.675V107.095H105.675ZM105.675 109.105H100.675V114.105H105.675V109.105ZM109.755 109.105H114.755V104.105H109.755V109.105ZM109.755 110.98V115.98H114.755V110.98H109.755ZM105.675 110.98V105.98H100.675V110.98H105.675ZM105.675 113.005H100.675V118.005H105.675V113.005ZM111 113.005H116V108.005H111V113.005ZM111 115V120H116V115H111ZM108.095 115V105.1H98.095V115H108.095ZM103.095 110.1H110.805V100.1H103.095V110.1ZM105.805 105.1V107.095H115.805V105.1H105.805ZM110.805 102.095H105.675V112.095H110.805V102.095ZM100.675 107.095V109.105H110.675V107.095H100.675ZM105.675 114.105H109.755V104.105H105.675V114.105ZM104.755 109.105V110.98H114.755V109.105H104.755ZM109.755 105.98H105.675V115.98H109.755V105.98ZM100.675 110.98V113.005H110.675V110.98H100.675ZM105.675 118.005H111V108.005H105.675V118.005ZM106 113.005V115H116V113.005H106ZM111 110H103.095V120H111V110ZM121.483 105.1H126.483V100.1H121.483V105.1ZM121.483 115V120H126.483V115H121.483ZM118.618 115L114.282 117.49L115.723 120H118.618V115ZM115.543 109.645L111.089 111.917L111.145 112.028L111.207 112.135L115.543 109.645ZM114.793 108.175L119.247 105.903L117.855 103.175H114.793V108.175ZM114.778 108.175V103.175H109.611L109.781 108.339L114.778 108.175ZM114.838 110.005H119.838V109.923L119.835 109.841L114.838 110.005ZM114.838 115V120H119.838V115H114.838ZM112.558 115H107.558V120H112.558V115ZM112.558 105.1V100.1H107.558V105.1H112.558ZM115.423 105.1L119.759 102.61L118.317 100.1H115.423V105.1ZM118.498 110.455L122.952 108.183L122.895 108.072L122.834 107.965L118.498 110.455ZM119.248 111.925L114.794 114.197L116.186 116.925H119.248V111.925ZM119.263 111.925V116.925H124.43L124.26 111.761L119.263 111.925ZM119.203 110.095H114.203V110.177L114.206 110.259L119.203 110.095ZM119.203 105.1V100.1H114.203V105.1H119.203ZM116.483 105.1V115H126.483V105.1H116.483ZM121.483 110H118.618V120H121.483V110ZM122.954 112.51L119.879 107.155L111.207 112.135L114.282 117.49L122.954 112.51ZM119.997 107.373L119.247 105.903L110.339 110.447L111.089 111.917L119.997 107.373ZM114.793 103.175H114.778V113.175H114.793V103.175ZM109.781 108.339L109.841 110.169L119.835 109.841L119.775 108.011L109.781 108.339ZM109.838 110.005V115H119.838V110.005H109.838ZM114.838 110H112.558V120H114.838V110ZM117.558 115V105.1H107.558V115H117.558ZM112.558 110.1H115.423V100.1H112.558V110.1ZM111.087 107.59L114.162 112.945L122.834 107.965L119.759 102.61L111.087 107.59ZM114.044 112.727L114.794 114.197L123.702 109.653L122.952 108.183L114.044 112.727ZM119.248 116.925H119.263V106.925H119.248V116.925ZM124.26 111.761L124.2 109.931L114.206 110.259L114.266 112.089L124.26 111.761ZM124.203 110.095V105.1H114.203V110.095H124.203ZM119.203 110.1H121.483V100.1H119.203V110.1ZM132.331 105.1H137.331V100.1H132.331V105.1ZM131.206 114.115L134.616 117.772L134.618 117.77L131.206 114.115ZM124.606 114.115L121.194 117.77L121.208 117.783L121.221 117.795L124.606 114.115ZM123.481 105.1V100.1H118.481V105.1H123.481ZM126.076 105.1H131.076V100.1H126.076V105.1ZM126.526 112.6L122.73 115.854L122.756 115.885L122.783 115.915L126.526 112.6ZM129.286 112.6L125.543 109.285L125.516 109.315L125.49 109.346L129.286 112.6ZM129.751 105.1V100.1H124.751V105.1H129.751ZM127.331 105.1V110.965H137.331V105.1H127.331ZM127.331 110.965C127.331 111.232 127.294 111.254 127.341 111.121C127.366 111.05 127.413 110.944 127.492 110.821C127.573 110.695 127.675 110.572 127.794 110.46L134.618 117.77C136.709 115.819 137.331 113.227 137.331 110.965H127.331ZM127.796 110.458C127.914 110.348 128.031 110.267 128.132 110.21C128.232 110.154 128.303 110.129 128.33 110.12C128.373 110.107 128.257 110.15 127.906 110.15V120.15C130.075 120.15 132.611 119.642 134.616 117.772L127.796 110.458ZM127.906 110.15C127.564 110.15 127.45 110.108 127.49 110.12C127.515 110.128 127.582 110.152 127.675 110.204C127.771 110.258 127.881 110.333 127.991 110.435L121.221 117.795C123.22 119.634 125.73 120.15 127.906 120.15V110.15ZM128.018 110.46C128.138 110.572 128.239 110.695 128.32 110.821C128.399 110.944 128.446 111.05 128.471 111.121C128.518 111.254 128.481 111.232 128.481 110.965H118.481C118.481 113.227 119.103 115.819 121.194 117.77L128.018 110.46ZM128.481 110.965V105.1H118.481V110.965H128.481ZM123.481 110.1H126.076V100.1H123.481V110.1ZM121.076 105.1V111.01H131.076V105.1H121.076ZM121.076 111.01C121.076 112.297 121.329 114.219 122.73 115.854L130.322 109.346C130.726 109.818 130.915 110.28 131 110.578C131.08 110.863 131.076 111.03 131.076 111.01H121.076ZM122.783 115.915C124.311 117.64 126.328 118.125 127.906 118.125V108.125C128.068 108.125 128.426 108.147 128.881 108.321C129.366 108.505 129.86 108.823 130.269 109.285L122.783 115.915ZM127.906 118.125C129.454 118.125 131.534 117.661 133.082 115.854L125.49 109.346C125.92 108.844 126.442 108.509 126.938 108.321C127.402 108.144 127.76 108.125 127.906 108.125V118.125ZM133.029 115.915C134.479 114.278 134.751 112.33 134.751 111.01H124.751C124.751 111.008 124.751 110.965 124.761 110.889C124.77 110.812 124.791 110.691 124.836 110.537C124.928 110.221 125.129 109.753 125.543 109.285L133.029 115.915ZM134.751 111.01V105.1H124.751V111.01H134.751ZM129.751 110.1H132.331V100.1H129.751V110.1ZM143.25 105.1H148.25V100.1H143.25V105.1ZM143.25 115V120H148.25V115H143.25ZM140.385 115L136.049 117.49L137.491 120H140.385V115ZM137.31 109.645L132.857 111.917L132.913 112.028L132.974 112.135L137.31 109.645ZM136.56 108.175L141.014 105.903L139.623 103.175H136.56V108.175ZM136.545 108.175V103.175H131.379L131.548 108.339L136.545 108.175ZM136.605 110.005H141.605V109.923L141.603 109.841L136.605 110.005ZM136.605 115V120H141.605V115H136.605ZM134.325 115H129.325V120H134.325V115ZM134.325 105.1V100.1H129.325V105.1H134.325ZM137.19 105.1L141.526 102.61L140.085 100.1H137.19V105.1ZM140.265 110.455L144.719 108.183L144.663 108.072L144.601 107.965L140.265 110.455ZM141.015 111.925L136.562 114.197L137.953 116.925H141.015V111.925ZM141.03 111.925V116.925H146.197L146.028 111.761L141.03 111.925ZM140.97 110.095H135.97V110.177L135.973 110.259L140.97 110.095ZM140.97 105.1V100.1H135.97V105.1H140.97ZM138.25 105.1V115H148.25V105.1H138.25ZM143.25 110H140.385V120H143.25V110ZM144.721 112.51L141.646 107.155L132.974 112.135L136.049 117.49L144.721 112.51ZM141.764 107.373L141.014 105.903L132.107 110.447L132.857 111.917L141.764 107.373ZM136.56 103.175H136.545V113.175H136.56V103.175ZM131.548 108.339L131.608 110.169L141.603 109.841L141.543 108.011L131.548 108.339ZM131.605 110.005V115H141.605V110.005H131.605ZM136.605 110H134.325V120H136.605V110ZM139.325 115V105.1H129.325V115H139.325ZM134.325 110.1H137.19V100.1H134.325V110.1ZM132.854 107.59L135.929 112.945L144.601 107.965L141.526 102.61L132.854 107.59ZM135.812 112.727L136.562 114.197L145.469 109.653L144.719 108.183L135.812 112.727ZM141.015 116.925H141.03V106.925H141.015V116.925ZM146.028 111.761L145.968 109.931L135.973 110.259L136.033 112.089L146.028 111.761ZM145.97 110.095V105.1H135.97V110.095H145.97ZM140.97 110.1H143.25V100.1H140.97V110.1Z" fill="white" fill-opacity="0.4" mask="url(#path-3-inside-2_3537_11040)"/>
<path d="M103.095 115H98.095V120H103.095V115ZM103.095 105.1V100.1H98.095V105.1H103.095ZM110.805 105.1H115.805V100.1H110.805V105.1ZM110.805 107.095V112.095H115.805V107.095H110.805ZM105.675 107.095V102.095H100.675V107.095H105.675ZM105.675 109.105H100.675V114.105H105.675V109.105ZM109.755 109.105H114.755V104.105H109.755V109.105ZM109.755 110.98V115.98H114.755V110.98H109.755ZM105.675 110.98V105.98H100.675V110.98H105.675ZM105.675 113.005H100.675V118.005H105.675V113.005ZM111 113.005H116V108.005H111V113.005ZM111 115V120H116V115H111ZM108.095 115V105.1H98.095V115H108.095ZM103.095 110.1H110.805V100.1H103.095V110.1ZM105.805 105.1V107.095H115.805V105.1H105.805ZM110.805 102.095H105.675V112.095H110.805V102.095ZM100.675 107.095V109.105H110.675V107.095H100.675ZM105.675 114.105H109.755V104.105H105.675V114.105ZM104.755 109.105V110.98H114.755V109.105H104.755ZM109.755 105.98H105.675V115.98H109.755V105.98ZM100.675 110.98V113.005H110.675V110.98H100.675ZM105.675 118.005H111V108.005H105.675V118.005ZM106 113.005V115H116V113.005H106ZM111 110H103.095V120H111V110ZM121.483 105.1H126.483V100.1H121.483V105.1ZM121.483 115V120H126.483V115H121.483ZM118.618 115L114.282 117.49L115.723 120H118.618V115ZM115.543 109.645L111.089 111.917L111.145 112.028L111.207 112.135L115.543 109.645ZM114.793 108.175L119.247 105.903L117.855 103.175H114.793V108.175ZM114.778 108.175V103.175H109.611L109.781 108.339L114.778 108.175ZM114.838 110.005H119.838V109.923L119.835 109.841L114.838 110.005ZM114.838 115V120H119.838V115H114.838ZM112.558 115H107.558V120H112.558V115ZM112.558 105.1V100.1H107.558V105.1H112.558ZM115.423 105.1L119.759 102.61L118.317 100.1H115.423V105.1ZM118.498 110.455L122.952 108.183L122.895 108.072L122.834 107.965L118.498 110.455ZM119.248 111.925L114.794 114.197L116.186 116.925H119.248V111.925ZM119.263 111.925V116.925H124.43L124.26 111.761L119.263 111.925ZM119.203 110.095H114.203V110.177L114.206 110.259L119.203 110.095ZM119.203 105.1V100.1H114.203V105.1H119.203ZM116.483 105.1V115H126.483V105.1H116.483ZM121.483 110H118.618V120H121.483V110ZM122.954 112.51L119.879 107.155L111.207 112.135L114.282 117.49L122.954 112.51ZM119.997 107.373L119.247 105.903L110.339 110.447L111.089 111.917L119.997 107.373ZM114.793 103.175H114.778V113.175H114.793V103.175ZM109.781 108.339L109.841 110.169L119.835 109.841L119.775 108.011L109.781 108.339ZM109.838 110.005V115H119.838V110.005H109.838ZM114.838 110H112.558V120H114.838V110ZM117.558 115V105.1H107.558V115H117.558ZM112.558 110.1H115.423V100.1H112.558V110.1ZM111.087 107.59L114.162 112.945L122.834 107.965L119.759 102.61L111.087 107.59ZM114.044 112.727L114.794 114.197L123.702 109.653L122.952 108.183L114.044 112.727ZM119.248 116.925H119.263V106.925H119.248V116.925ZM124.26 111.761L124.2 109.931L114.206 110.259L114.266 112.089L124.26 111.761ZM124.203 110.095V105.1H114.203V110.095H124.203ZM119.203 110.1H121.483V100.1H119.203V110.1ZM132.331 105.1H137.331V100.1H132.331V105.1ZM131.206 114.115L134.616 117.772L134.618 117.77L131.206 114.115ZM124.606 114.115L121.194 117.77L121.208 117.783L121.221 117.795L124.606 114.115ZM123.481 105.1V100.1H118.481V105.1H123.481ZM126.076 105.1H131.076V100.1H126.076V105.1ZM126.526 112.6L122.73 115.854L122.756 115.885L122.783 115.915L126.526 112.6ZM129.286 112.6L125.543 109.285L125.516 109.315L125.49 109.346L129.286 112.6ZM129.751 105.1V100.1H124.751V105.1H129.751ZM127.331 105.1V110.965H137.331V105.1H127.331ZM127.331 110.965C127.331 111.232 127.294 111.254 127.341 111.121C127.366 111.05 127.413 110.944 127.492 110.821C127.573 110.695 127.675 110.572 127.794 110.46L134.618 117.77C136.709 115.819 137.331 113.227 137.331 110.965H127.331ZM127.796 110.458C127.914 110.348 128.031 110.267 128.132 110.21C128.232 110.154 128.303 110.129 128.33 110.12C128.373 110.107 128.257 110.15 127.906 110.15V120.15C130.075 120.15 132.611 119.642 134.616 117.772L127.796 110.458ZM127.906 110.15C127.564 110.15 127.45 110.108 127.49 110.12C127.515 110.128 127.582 110.152 127.675 110.204C127.771 110.258 127.881 110.333 127.991 110.435L121.221 117.795C123.22 119.634 125.73 120.15 127.906 120.15V110.15ZM128.018 110.46C128.138 110.572 128.239 110.695 128.32 110.821C128.399 110.944 128.446 111.05 128.471 111.121C128.518 111.254 128.481 111.232 128.481 110.965H118.481C118.481 113.227 119.103 115.819 121.194 117.77L128.018 110.46ZM128.481 110.965V105.1H118.481V110.965H128.481ZM123.481 110.1H126.076V100.1H123.481V110.1ZM121.076 105.1V111.01H131.076V105.1H121.076ZM121.076 111.01C121.076 112.297 121.329 114.219 122.73 115.854L130.322 109.346C130.726 109.818 130.915 110.28 131 110.578C131.08 110.863 131.076 111.03 131.076 111.01H121.076ZM122.783 115.915C124.311 117.64 126.328 118.125 127.906 118.125V108.125C128.068 108.125 128.426 108.147 128.881 108.321C129.366 108.505 129.86 108.823 130.269 109.285L122.783 115.915ZM127.906 118.125C129.454 118.125 131.534 117.661 133.082 115.854L125.49 109.346C125.92 108.844 126.442 108.509 126.938 108.321C127.402 108.144 127.76 108.125 127.906 108.125V118.125ZM133.029 115.915C134.479 114.278 134.751 112.33 134.751 111.01H124.751C124.751 111.008 124.751 110.965 124.761 110.889C124.77 110.812 124.791 110.691 124.836 110.537C124.928 110.221 125.129 109.753 125.543 109.285L133.029 115.915ZM134.751 111.01V105.1H124.751V111.01H134.751ZM129.751 110.1H132.331V100.1H129.751V110.1ZM143.25 105.1H148.25V100.1H143.25V105.1ZM143.25 115V120H148.25V115H143.25ZM140.385 115L136.049 117.49L137.491 120H140.385V115ZM137.31 109.645L132.857 111.917L132.913 112.028L132.974 112.135L137.31 109.645ZM136.56 108.175L141.014 105.903L139.623 103.175H136.56V108.175ZM136.545 108.175V103.175H131.379L131.548 108.339L136.545 108.175ZM136.605 110.005H141.605V109.923L141.603 109.841L136.605 110.005ZM136.605 115V120H141.605V115H136.605ZM134.325 115H129.325V120H134.325V115ZM134.325 105.1V100.1H129.325V105.1H134.325ZM137.19 105.1L141.526 102.61L140.085 100.1H137.19V105.1ZM140.265 110.455L144.719 108.183L144.663 108.072L144.601 107.965L140.265 110.455ZM141.015 111.925L136.562 114.197L137.953 116.925H141.015V111.925ZM141.03 111.925V116.925H146.197L146.028 111.761L141.03 111.925ZM140.97 110.095H135.97V110.177L135.973 110.259L140.97 110.095ZM140.97 105.1V100.1H135.97V105.1H140.97ZM138.25 105.1V115H148.25V105.1H138.25ZM143.25 110H140.385V120H143.25V110ZM144.721 112.51L141.646 107.155L132.974 112.135L136.049 117.49L144.721 112.51ZM141.764 107.373L141.014 105.903L132.107 110.447L132.857 111.917L141.764 107.373ZM136.56 103.175H136.545V113.175H136.56V103.175ZM131.548 108.339L131.608 110.169L141.603 109.841L141.543 108.011L131.548 108.339ZM131.605 110.005V115H141.605V110.005H131.605ZM136.605 110H134.325V120H136.605V110ZM139.325 115V105.1H129.325V115H139.325ZM134.325 110.1H137.19V100.1H134.325V110.1ZM132.854 107.59L135.929 112.945L144.601 107.965L141.526 102.61L132.854 107.59ZM135.812 112.727L136.562 114.197L145.469 109.653L144.719 108.183L135.812 112.727ZM141.015 116.925H141.03V106.925H141.015V116.925ZM146.028 111.761L145.968 109.931L135.973 110.259L136.033 112.089L146.028 111.761ZM145.97 110.095V105.1H135.97V110.095H145.97ZM140.97 110.1H143.25V100.1H140.97V110.1Z" fill="black" fill-opacity="0.2" mask="url(#path-3-inside-2_3537_11040)"/>
<path d="M103.095 115H98.095V120H103.095V115ZM103.095 105.1V100.1H98.095V105.1H103.095ZM110.805 105.1H115.805V100.1H110.805V105.1ZM110.805 107.095V112.095H115.805V107.095H110.805ZM105.675 107.095V102.095H100.675V107.095H105.675ZM105.675 109.105H100.675V114.105H105.675V109.105ZM109.755 109.105H114.755V104.105H109.755V109.105ZM109.755 110.98V115.98H114.755V110.98H109.755ZM105.675 110.98V105.98H100.675V110.98H105.675ZM105.675 113.005H100.675V118.005H105.675V113.005ZM111 113.005H116V108.005H111V113.005ZM111 115V120H116V115H111ZM108.095 115V105.1H98.095V115H108.095ZM103.095 110.1H110.805V100.1H103.095V110.1ZM105.805 105.1V107.095H115.805V105.1H105.805ZM110.805 102.095H105.675V112.095H110.805V102.095ZM100.675 107.095V109.105H110.675V107.095H100.675ZM105.675 114.105H109.755V104.105H105.675V114.105ZM104.755 109.105V110.98H114.755V109.105H104.755ZM109.755 105.98H105.675V115.98H109.755V105.98ZM100.675 110.98V113.005H110.675V110.98H100.675ZM105.675 118.005H111V108.005H105.675V118.005ZM106 113.005V115H116V113.005H106ZM111 110H103.095V120H111V110ZM121.483 105.1H126.483V100.1H121.483V105.1ZM121.483 115V120H126.483V115H121.483ZM118.618 115L114.282 117.49L115.723 120H118.618V115ZM115.543 109.645L111.089 111.917L111.145 112.028L111.207 112.135L115.543 109.645ZM114.793 108.175L119.247 105.903L117.855 103.175H114.793V108.175ZM114.778 108.175V103.175H109.611L109.781 108.339L114.778 108.175ZM114.838 110.005H119.838V109.923L119.835 109.841L114.838 110.005ZM114.838 115V120H119.838V115H114.838ZM112.558 115H107.558V120H112.558V115ZM112.558 105.1V100.1H107.558V105.1H112.558ZM115.423 105.1L119.759 102.61L118.317 100.1H115.423V105.1ZM118.498 110.455L122.952 108.183L122.895 108.072L122.834 107.965L118.498 110.455ZM119.248 111.925L114.794 114.197L116.186 116.925H119.248V111.925ZM119.263 111.925V116.925H124.43L124.26 111.761L119.263 111.925ZM119.203 110.095H114.203V110.177L114.206 110.259L119.203 110.095ZM119.203 105.1V100.1H114.203V105.1H119.203ZM116.483 105.1V115H126.483V105.1H116.483ZM121.483 110H118.618V120H121.483V110ZM122.954 112.51L119.879 107.155L111.207 112.135L114.282 117.49L122.954 112.51ZM119.997 107.373L119.247 105.903L110.339 110.447L111.089 111.917L119.997 107.373ZM114.793 103.175H114.778V113.175H114.793V103.175ZM109.781 108.339L109.841 110.169L119.835 109.841L119.775 108.011L109.781 108.339ZM109.838 110.005V115H119.838V110.005H109.838ZM114.838 110H112.558V120H114.838V110ZM117.558 115V105.1H107.558V115H117.558ZM112.558 110.1H115.423V100.1H112.558V110.1ZM111.087 107.59L114.162 112.945L122.834 107.965L119.759 102.61L111.087 107.59ZM114.044 112.727L114.794 114.197L123.702 109.653L122.952 108.183L114.044 112.727ZM119.248 116.925H119.263V106.925H119.248V116.925ZM124.26 111.761L124.2 109.931L114.206 110.259L114.266 112.089L124.26 111.761ZM124.203 110.095V105.1H114.203V110.095H124.203ZM119.203 110.1H121.483V100.1H119.203V110.1ZM132.331 105.1H137.331V100.1H132.331V105.1ZM131.206 114.115L134.616 117.772L134.618 117.77L131.206 114.115ZM124.606 114.115L121.194 117.77L121.208 117.783L121.221 117.795L124.606 114.115ZM123.481 105.1V100.1H118.481V105.1H123.481ZM126.076 105.1H131.076V100.1H126.076V105.1ZM126.526 112.6L122.73 115.854L122.756 115.885L122.783 115.915L126.526 112.6ZM129.286 112.6L125.543 109.285L125.516 109.315L125.49 109.346L129.286 112.6ZM129.751 105.1V100.1H124.751V105.1H129.751ZM127.331 105.1V110.965H137.331V105.1H127.331ZM127.331 110.965C127.331 111.232 127.294 111.254 127.341 111.121C127.366 111.05 127.413 110.944 127.492 110.821C127.573 110.695 127.675 110.572 127.794 110.46L134.618 117.77C136.709 115.819 137.331 113.227 137.331 110.965H127.331ZM127.796 110.458C127.914 110.348 128.031 110.267 128.132 110.21C128.232 110.154 128.303 110.129 128.33 110.12C128.373 110.107 128.257 110.15 127.906 110.15V120.15C130.075 120.15 132.611 119.642 134.616 117.772L127.796 110.458ZM127.906 110.15C127.564 110.15 127.45 110.108 127.49 110.12C127.515 110.128 127.582 110.152 127.675 110.204C127.771 110.258 127.881 110.333 127.991 110.435L121.221 117.795C123.22 119.634 125.73 120.15 127.906 120.15V110.15ZM128.018 110.46C128.138 110.572 128.239 110.695 128.32 110.821C128.399 110.944 128.446 111.05 128.471 111.121C128.518 111.254 128.481 111.232 128.481 110.965H118.481C118.481 113.227 119.103 115.819 121.194 117.77L128.018 110.46ZM128.481 110.965V105.1H118.481V110.965H128.481ZM123.481 110.1H126.076V100.1H123.481V110.1ZM121.076 105.1V111.01H131.076V105.1H121.076ZM121.076 111.01C121.076 112.297 121.329 114.219 122.73 115.854L130.322 109.346C130.726 109.818 130.915 110.28 131 110.578C131.08 110.863 131.076 111.03 131.076 111.01H121.076ZM122.783 115.915C124.311 117.64 126.328 118.125 127.906 118.125V108.125C128.068 108.125 128.426 108.147 128.881 108.321C129.366 108.505 129.86 108.823 130.269 109.285L122.783 115.915ZM127.906 118.125C129.454 118.125 131.534 117.661 133.082 115.854L125.49 109.346C125.92 108.844 126.442 108.509 126.938 108.321C127.402 108.144 127.76 108.125 127.906 108.125V118.125ZM133.029 115.915C134.479 114.278 134.751 112.33 134.751 111.01H124.751C124.751 111.008 124.751 110.965 124.761 110.889C124.77 110.812 124.791 110.691 124.836 110.537C124.928 110.221 125.129 109.753 125.543 109.285L133.029 115.915ZM134.751 111.01V105.1H124.751V111.01H134.751ZM129.751 110.1H132.331V100.1H129.751V110.1ZM143.25 105.1H148.25V100.1H143.25V105.1ZM143.25 115V120H148.25V115H143.25ZM140.385 115L136.049 117.49L137.491 120H140.385V115ZM137.31 109.645L132.857 111.917L132.913 112.028L132.974 112.135L137.31 109.645ZM136.56 108.175L141.014 105.903L139.623 103.175H136.56V108.175ZM136.545 108.175V103.175H131.379L131.548 108.339L136.545 108.175ZM136.605 110.005H141.605V109.923L141.603 109.841L136.605 110.005ZM136.605 115V120H141.605V115H136.605ZM134.325 115H129.325V120H134.325V115ZM134.325 105.1V100.1H129.325V105.1H134.325ZM137.19 105.1L141.526 102.61L140.085 100.1H137.19V105.1ZM140.265 110.455L144.719 108.183L144.663 108.072L144.601 107.965L140.265 110.455ZM141.015 111.925L136.562 114.197L137.953 116.925H141.015V111.925ZM141.03 111.925V116.925H146.197L146.028 111.761L141.03 111.925ZM140.97 110.095H135.97V110.177L135.973 110.259L140.97 110.095ZM140.97 105.1V100.1H135.97V105.1H140.97ZM138.25 105.1V115H148.25V105.1H138.25ZM143.25 110H140.385V120H143.25V110ZM144.721 112.51L141.646 107.155L132.974 112.135L136.049 117.49L144.721 112.51ZM141.764 107.373L141.014 105.903L132.107 110.447L132.857 111.917L141.764 107.373ZM136.56 103.175H136.545V113.175H136.56V103.175ZM131.548 108.339L131.608 110.169L141.603 109.841L141.543 108.011L131.548 108.339ZM131.605 110.005V115H141.605V110.005H131.605ZM136.605 110H134.325V120H136.605V110ZM139.325 115V105.1H129.325V115H139.325ZM134.325 110.1H137.19V100.1H134.325V110.1ZM132.854 107.59L135.929 112.945L144.601 107.965L141.526 102.61L132.854 107.59ZM135.812 112.727L136.562 114.197L145.469 109.653L144.719 108.183L135.812 112.727ZM141.015 116.925H141.03V106.925H141.015V116.925ZM146.028 111.761L145.968 109.931L135.973 110.259L136.033 112.089L146.028 111.761ZM145.97 110.095V105.1H135.97V110.095H145.97ZM140.97 110.1H143.25V100.1H140.97V110.1Z" fill="black" fill-opacity="0.1" mask="url(#path-3-inside-2_3537_11040)"/>
</g>
<defs>
<filter id="filter0_ddi_3537_11040" x="18.7598" y="29.2402" width="128.49" height="95.0396" filterUnits="userSpaceOnUse" color-interpolation-filters="sRGB">
<feFlood flood-opacity="0" result="BackgroundImageFix"/>
<feColorMatrix in="SourceAlpha" type="matrix" values="0 0 0 0 0 0 0 0 0 0 0 0 0 0 0 0 0 0 127 0" result="hardAlpha"/>
<feOffset dy="4"/>
<feGaussianBlur stdDeviation="2"/>
<feComposite in2="hardAlpha" operator="out"/>
<feColorMatrix type="matrix" values="0 0 0 0 0 0 0 0 0 0 0 0 0 0 0 0 0 0 0.25 0"/>
<feBlend mode="normal" in2="BackgroundImageFix" result="effect1_dropShadow_3537_11040"/>
<feColorMatrix in="SourceAlpha" type="matrix" values="0 0 0 0 0 0 0 0 0 0 0 0 0 0 0 0 0 0 127 0" result="hardAlpha"/>
<feOffset dy="4"/>
<feGaussianBlur stdDeviation="2"/>
<feComposite in2="hardAlpha" operator="out"/>
<feColorMatrix type="matrix" values="0 0 0 0 0 0 0 0 0 0 0 0 0 0 0 0 0 0 0.25 0"/>
<feBlend mode="normal" in2="effect1_dropShadow_3537_11040" result="effect2_dropShadow_3537_11040"/>
<feBlend mode="normal" in="SourceGraphic" in2="effect2_dropShadow_3537_11040" result="shape"/>
<feColorMatrix in="SourceAlpha" type="matrix" values="0 0 0 0 0 0 0 0 0 0 0 0 0 0 0 0 0 0 127 0" result="hardAlpha"/>
<feOffset dy="4"/>
<feGaussianBlur stdDeviation="2"/>
<feComposite in2="hardAlpha" operator="arithmetic" k2="-1" k3="1"/>
<feColorMatrix type="matrix" values="0 0 0 0 0 0 0 0 0 0 0 0 0 0 0 0 0 0 0.25 0"/>
<feBlend mode="normal" in2="shape" result="effect3_innerShadow_3537_11040"/>
</filter>
</defs>
</svg>
