<?xml version="1.0" standalone="no"?>
<!DOCTYPE svg PUBLIC "-//W3C//DTD SVG 20010904//EN"
 "http://www.w3.org/TR/2001/REC-SVG-20010904/DTD/svg10.dtd">
<svg version="1.0" xmlns="http://www.w3.org/2000/svg"
 width="300.000000pt" height="300.000000pt" viewBox="0 0 300.000000 300.000000"
 preserveAspectRatio="xMidYMid meet">
<metadata>
Created by potrace 1.10, written by Peter Selinger 2001-2011
</metadata>
<g transform="translate(0.000000,300.000000) scale(0.100000,-0.100000)"
fill="#000000" stroke="none">
<path d="M648 2900 c56 -57 105 -101 107 -98 7 6 -181 192 -198 196 -6 2 34
-42 91 -98z"/>
<path d="M520 2985 c0 -5 8 -13 131 -130 156 -148 165 -151 24 -7 -124 126
-155 154 -155 137z"/>
<path d="M490 2842 c0 -4 46 -52 102 -107 66 -66 90 -84 68 -55 -50 66 -170
181 -170 162z"/>
<path d="M470 2803 c0 -13 85 -103 98 -103 6 0 13 -9 17 -19 3 -11 14 -23 25
-26 10 -3 21 -12 24 -20 2 -7 15 -19 28 -26 15 -8 8 4 -22 37 -84 93 -170 172
-170 157z"/>
<path d="M280 2784 c0 -6 37 -43 125 -124 35 -31 22 -16 -30 38 -90 92 -95 97
-95 86z"/>
<path d="M1 2620 c1 -25 3 -37 6 -27 2 9 9 17 14 17 13 0 11 13 -6 36 -13 18
-14 16 -14 -26z"/>
<path d="M1230 2287 c-52 -34 -71 -76 -77 -168 -5 -68 -8 -79 -22 -73 -9 3
-34 8 -57 11 -36 5 -43 2 -63 -23 -17 -22 -22 -40 -20 -83 2 -71 31 -123 103
-188 46 -41 55 -56 65 -102 13 -62 35 -94 141 -205 198 -208 227 -234 275
-244 81 -17 145 8 186 75 22 34 24 49 24 155 0 65 4 118 8 118 4 0 21 -10 36
-21 67 -49 173 -25 222 50 22 35 25 50 27 156 2 70 -2 132 -9 153 -13 40 -67
107 -109 135 -26 16 -28 16 -46 -4 -16 -18 -19 -40 -21 -151 -2 -72 -5 -134
-9 -137 -3 -3 -51 42 -107 100 -241 249 -416 426 -445 447 -38 28 -60 28 -102
-1z m72 -314 l-2 -308 141 -147 c77 -82 148 -148 158 -148 32 0 41 22 41 99
l0 76 -117 117 -118 118 68 0 c39 0 80 -6 95 -14 37 -19 159 -148 172 -180 5
-15 10 -74 10 -132 0 -116 -13 -162 -54 -189 -34 -23 -99 -30 -134 -16 -28 12
-336 324 -359 365 -9 15 -12 101 -13 305 l0 283 39 39 c21 22 47 39 57 39 18
0 19 -13 16 -307z m331 -30 c250 -262 279 -284 293 -229 3 14 4 91 2 171 l-3
147 58 -61 57 -62 0 -138 c0 -125 -2 -141 -21 -165 -29 -37 -70 -56 -120 -56
-48 0 -6 -38 -382 346 l-187 191 0 83 0 84 30 -29 c17 -16 139 -143 273 -282z
m-503 59 c24 -18 25 -24 28 -140 l3 -121 -65 67 -64 67 -2 70 c-1 39 -1 74 -1
79 1 14 73 -2 101 -22z m311 -77 c46 -47 85 -92 87 -100 3 -12 -9 -15 -51 -15
-41 0 -58 -5 -72 -20 -23 -25 -17 -35 103 -160 91 -95 91 -95 92 -147 0 -28
-4 -54 -8 -57 -5 -3 -64 50 -130 118 l-122 124 0 171 c0 94 4 171 9 171 4 0
46 -38 92 -85z"/>
<path d="M66 1898 c86 -91 141 -139 125 -110 -7 13 -19 26 -27 29 -8 3 -14 9
-14 13 0 11 -122 130 -133 130 -6 0 16 -28 49 -62z"/>
<path d="M0 1894 c1 -23 12 -37 52 -69 28 -22 56 -45 62 -51 6 -5 43 -32 81
-58 l70 -48 -50 48 c-27 26 -87 84 -132 128 -80 77 -83 78 -83 50z"/>
<path d="M2198 1075 c-7 -16 -19 -25 -34 -25 -13 0 -33 -13 -48 -30 l-25 -31
-32 31 c-60 57 -130 35 -138 -42 -2 -17 -21 -7 -21 10 0 29 -38 62 -70 62 -34
0 -48 -20 -56 -83 -12 -86 -44 -87 -44 -1 0 84 -73 112 -117 45 -13 -19 -23
-27 -23 -18 0 19 -46 57 -70 57 -10 0 -30 -14 -44 -31 l-26 -31 -35 31 c-42
37 -85 41 -116 10 -18 -18 -20 -30 -17 -115 3 -102 10 -117 59 -129 22 -5 31
-1 52 26 l25 32 32 -26 c73 -62 140 -38 140 48 0 14 5 25 10 25 6 0 10 -8 10
-18 0 -24 56 -81 87 -88 14 -4 51 -4 83 -1 84 7 112 35 118 116 6 80 22 78 22
-2 0 -70 15 -101 55 -111 33 -9 61 7 69 39 l7 26 35 -30 c41 -37 77 -47 109
-33 31 14 39 59 33 167 -5 74 -4 83 14 94 19 12 19 13 2 32 -23 25 -32 24 -46
-6z m-763 -127 l60 -71 3 71 c3 69 4 72 27 72 25 0 25 0 25 -105 l0 -105 -26
0 c-26 0 -50 20 -117 99 l-37 45 0 -73 0 -72 -27 3 -28 3 -2 103 -1 102 32 0
c27 0 40 -10 91 -72z m265 -2 c0 -79 5 -86 55 -86 41 0 55 25 55 96 l0 64 31
0 c24 0 30 -3 25 -16 -3 -9 -6 -44 -6 -79 0 -81 -18 -105 -82 -112 -58 -7 -92
1 -118 27 -17 17 -20 34 -20 100 l0 80 30 0 30 0 0 -74z m377 3 l58 -70 3 70
c3 70 3 71 30 71 l27 0 -3 -105 -3 -105 -27 0 c-21 0 -40 16 -87 71 l-60 71
-3 -72 c-3 -71 -3 -71 -30 -68 l-26 3 2 100 c1 55 2 101 2 103 0 1 13 2 29 2
25 0 40 -12 88 -71z"/>
<path d="M1086 1051 c-36 -8 -74 -54 -59 -73 6 -7 9 -44 7 -83 -1 -45 2 -76
10 -87 16 -22 88 -33 151 -24 50 8 75 38 60 73 -10 23 -10 91 0 120 10 32 -33
73 -79 73 -19 0 -40 2 -48 4 -7 2 -26 1 -42 -3z m144 -56 c0 -25 -1 -25 -85
-25 -84 0 -85 0 -85 25 0 25 1 25 85 25 84 0 85 0 85 -25z m-12 -84 c3 -20 0
-21 -77 -21 -77 0 -81 1 -81 23 0 21 3 22 77 21 72 -1 78 -3 81 -23z m10 -73
c-3 -20 -8 -22 -87 -22 -79 0 -84 1 -87 22 -4 21 -1 22 87 22 87 0 90 -1 87
-22z"/>
<path d="M783 1035 c-47 -20 -67 -58 -66 -122 2 -91 64 -139 166 -130 90 8
136 67 108 140 -7 17 -7 36 -1 51 7 19 4 30 -11 50 -19 24 -27 26 -92 26 -40
-1 -86 -7 -104 -15z m179 -40 c-4 -24 -8 -25 -67 -25 -72 0 -95 -14 -95 -59 0
-38 21 -53 66 -49 39 3 61 28 25 28 -14 0 -21 6 -21 20 0 17 7 20 51 20 l52 0
-7 -42 c-4 -24 -13 -49 -21 -57 -21 -21 -105 -26 -147 -8 -47 20 -67 74 -48
131 16 50 49 65 141 66 76 0 76 0 71 -25z"/>
<path d="M293 368 c40 -15 24 -26 -31 -20 -36 3 -51 0 -61 -12 -12 -14 -12
-16 3 -10 21 8 22 -19 0 -40 -20 -21 -33 -20 -57 2 -11 9 -17 11 -13 5 4 -7 2
-13 -3 -13 -6 0 -11 -8 -10 -17 0 -11 3 -13 6 -5 2 6 12 12 20 12 13 0 13 -2
2 -17 -8 -9 -9 -14 -2 -10 7 5 10 1 9 -10 -2 -10 1 -21 7 -24 5 -4 6 -12 2
-18 -5 -9 -11 -7 -22 6 -9 11 -8 6 3 -12 18 -31 43 -54 58 -55 5 0 -1 9 -14
20 -31 27 -20 36 19 16 38 -20 65 -21 58 -2 -6 15 22 46 41 46 7 0 12 5 12 10
0 6 4 10 10 10 5 0 6 -8 3 -17 -6 -16 -5 -16 10 -5 9 8 22 11 29 7 7 -4 5 0
-6 9 -12 9 -17 23 -13 36 3 11 1 23 -5 26 -5 3 -6 20 -3 37 5 26 4 29 -5 14
-6 -9 -16 -15 -21 -11 -6 4 -6 11 1 19 9 10 7 16 -9 24 -11 6 -26 11 -33 10
-7 0 -1 -5 15 -11z m-18 -68 c0 -22 -29 -18 -33 3 -3 14 1 18 15 15 10 -2 18
-10 18 -18z m43 -39 c3 -20 0 -22 -20 -16 -31 10 -33 12 -18 30 17 21 34 14
38 -14z m-63 -6 c29 -30 31 -35 11 -35 -8 0 -18 -9 -21 -21 -6 -19 -8 -19 -32
7 -23 25 -24 29 -9 39 9 7 16 17 16 24 0 16 6 14 35 -14z"/>
<path d="M2988 280 c-2 -23 0 -46 4 -53 4 -7 8 12 8 41 0 62 -6 68 -12 12z"/>
</g>
</svg>
