<?xml version="1.0" encoding="utf-8" ?>
<svg baseProfile="tiny" height="100%" version="1.2" width="100%" xmlns="http://www.w3.org/2000/svg" xmlns:ev="http://www.w3.org/2001/xml-events" xmlns:xlink="http://www.w3.org/1999/xlink"><defs /><polygon fill="black" points="0.0,0.0 0.0,34.0 1.0,34.0 2.0,35.0 2.0,36.0 3.0,37.0 3.0,38.0 2.0,39.0 1.0,39.0 0.0,40.0 0.0,108.0 1.0,108.0 18.0,125.0 19.0,125.0 23.0,129.0 22.0,130.0 21.0,130.0 19.0,128.0 18.0,128.0 16.0,126.0 15.0,126.0 12.0,123.0 11.0,123.0 7.0,119.0 6.0,119.0 0.0,113.0 0.0,299.0 299.0,299.0 299.0,277.0 298.0,276.0 298.0,269.0 299.0,268.0 299.0,0.0" stroke="none" /></svg>